<?xml version="1.0" encoding="utf-8"?>
<!-- Generator: Adobe Illustrator 18.1.0, SVG Export Plug-In . SVG Version: 6.00 Build 0)  -->
<!DOCTYPE svg PUBLIC "-//W3C//DTD SVG 1.1//EN" "http://www.w3.org/Graphics/SVG/1.1/DTD/svg11.dtd">
<svg version="1.1" id="Layer_1" xmlns="http://www.w3.org/2000/svg" xmlns:xlink="http://www.w3.org/1999/xlink" x="0px" y="0px"
	 viewBox="0 141.7 315 567.6" enable-background="new 0 141.7 315 567.6" xml:space="preserve">
<g>
	<g>
		<path fill="#FFB3B3" d="M170.5,645.8c-9,0.6-16.4,9.5-16.4,19.8c0,10.3,7.4,18,16.4,17.3c9-0.7,16.2-9.6,16.2-19.8
			C186.8,653,179.5,645.2,170.5,645.8z"/>
		<path fill="#FFB3B3" d="M282.5,271.4c0,0-1.5,0-1.5,0v0.1c0,0,0-0.1-0.1-0.1c0,0,0.1,0,0.1,0v-75c0-20.4-12.5-38.3-30.1-39.8
			L85.6,141.8C65.8,140.1,51,156.7,51,178.6v494.1c0,22,15.4,38.2,35.2,36.4L251,694.5c17.6-1.6,30-19.1,30-39.5V309.8
			c0,0,1.3,0,1.3,0c0,0,0.7,0,0.7,0c0,0,0.4,0,0.5,0c1.8,0,3.5-1.7,3.5-3.8v-30.4C287,273.4,284.2,271.6,282.5,271.4z"/>
	</g>
	<g>
		<path fill="#FFE6E6" d="M185.4,645.8c-8.8,0.6-16,9.5-16,19.8c0,10.3,7.2,18,16,17.3c8.7-0.7,15.8-9.6,15.8-19.8
			C201.2,653,194.2,645.2,185.4,645.8z"/>
		<path fill="#FFE6E6" d="M295,271.4C295,271.3,295,271.3,295,271.4L295,271.4C295,271.4,295,271.3,295,271.4
			C295,271.3,295,271.3,295,271.4l0-75c0-20.4-13.2-38.3-30.3-39.8l-162.6-14.7C82.9,140.1,67,156.7,67,178.6v83.9l-0.2,0
			c-2.1-0.1-2.8,1.2-2.8,3.6V299c0,2.4,0.7,3.7,2.8,3.8l0.2,0v9.9l-0.3,0c-2.1-0.1-2.7,2.5-2.7,4.9v32.9c0,2.4,0.6,4,2.7,4l0.3,0
			v318.3c0,22,16,38.2,35.2,36.4l162-14.7c17.1-1.6,30.7-19.1,30.7-39.5V309.8c0,0,0.3,0,0.3,0c0,0,0.2,0,0.2,0c0,0-0.3,0-0.2,0
			c1.7,0,2.7-1.7,2.7-3.8v-30.4C298,273.4,296.7,271.6,295,271.4z M186.1,162.4c1.9,0.2,3.4,2.1,3.4,4.3c0,2.2-1.5,3.9-3.4,3.7
			c-1.9-0.2-3.4-2.1-3.4-4.3C182.7,163.9,184.3,162.2,186.1,162.4z M203,187.4c0,1.6,0,2.8-1.4,2.7l-33.1-2.6
			c-1.4-0.1-2.5-1.5-2.5-3.2V183c0-1.6,1.7-2.9,3.1-2.8l32.3,2.7c1.4,0.1,1.6,1.5,1.6,3.1V187.4z M148.6,175.8
			c2.5,0.2,4.5,2.7,4.5,5.5c0,2.8-2,5-4.5,4.8c-2.5-0.2-4.5-2.7-4.5-5.5C144.1,177.8,146.1,175.6,148.6,175.8z M185.4,685.8
			c-10.2,0.9-18.5-8.1-18.5-20c0-11.9,8.3-22.1,18.5-22.8c10.1-0.7,18.2,8.2,18.2,20S195.5,684.9,185.4,685.8z M286,628.9L83,643
			V207.2l203,14.2V628.9z"/>
	</g>
	<polygon fill="#FF6666" points="286,628.9 81.5,643 81.5,207.2 286,221.4 	"/>
	<g>
		<polygon fill="#FF6666" points="285.6,628.9 81,643 81,207.2 285.6,221.4 		"/>
		<path fill="#FFFFFF" d="M285.6,232.7l-43.7-2.9c-10.1-0.7-18.6,8.4-18.6,20.4v350.2c0,12.1,8.5,21.3,18.6,20.7l43.7-2.9V232.7z"/>
		<path fill="#CC2929" d="M192.8,226.6L81,219.3v412.4l111.7-7.3c10.4-0.7,18.9-11.1,18.9-23.2V249.6
			C211.6,237.5,203.2,227.3,192.8,226.6z"/>
		<path fill="#FF8080" d="M80,398.2v233.5l112.1-7.3c10.4-0.7,18.9-11.1,18.9-23.2V478.7l-85.7-180.9L80,398.2z"/>
		<polygon fill="#FFBFBF" points="80,398.2 125.6,297.8 170.9,393 151.9,425.1 129.8,383.4 110.3,422.8 97.3,379.4 80,422.3 		"/>
		<path fill="#FFE6E6" d="M198.5,276.6c0-20.3-14.1-37.7-31.8-38.8c-17.8-1.1-32.5,14.9-32.5,35.6c0,20.8,14.6,38.2,32.5,38.8
			C184.3,313,198.5,297,198.5,276.6z"/>
		<path fill="#FF9999" d="M221,449v151.5c0,12.1,10,21.3,20.1,20.7l44.9-2.8V448.5L221,449z"/>
		<path fill="#FF9696" d="M286,232.7l-44.9-2.8c-10.1-0.7-20.1,8.3-20.1,20.4v127.2l65,1V232.7z"/>
		<path fill="#FF6363" d="M286.5,323.4c-7.5,6.3-12.3,16.7-12.3,28.7c0,11.6,4.5,22,11.6,28.7L286.5,323.4z"/>
		<path fill="#D92C2C" d="M221,377.5V449l65-0.5v-80.8C264,369,243,373.4,221,377.5z"/>
	</g>
	<g>
		<linearGradient id="SVGID_1_" gradientUnits="userSpaceOnUse" x1="11.7782" y1="516.8806" x2="303.2218" y2="516.8806">
			<stop  offset="0" style="stop-color:#FFFFFF"/>
			<stop  offset="1" style="stop-color:#000000"/>
		</linearGradient>
		<linearGradient id="SVGID_2_" gradientUnits="userSpaceOnUse" x1="11.4853" y1="516.8806" x2="303.5147" y2="516.8806">
			<stop  offset="0" style="stop-color:#FFFFFF;stop-opacity:0"/>
			<stop  offset="4.178309e-02" style="stop-color:#FFFFFF;stop-opacity:8.356619e-02"/>
			<stop  offset="0.5" style="stop-color:#FFFFFF"/>
			<stop  offset="1" style="stop-color:#FFFFFF;stop-opacity:0"/>
		</linearGradient>

			<line fill="url(#SVGID_1_)" stroke="url(#SVGID_2_)" stroke-width="8" stroke-miterlimit="10" x1="11.8" y1="527.6" x2="303.2" y2="506.2"/>
		<linearGradient id="SVGID_3_" gradientUnits="userSpaceOnUse" x1="11.7782" y1="441.9617" x2="303.2218" y2="441.9617">
			<stop  offset="0" style="stop-color:#FFFFFF"/>
			<stop  offset="1" style="stop-color:#000000"/>
		</linearGradient>
		<linearGradient id="SVGID_4_" gradientUnits="userSpaceOnUse" x1="11.7768" y1="441.9617" x2="303.2232" y2="441.9617">
			<stop  offset="0" style="stop-color:#FFFFFF;stop-opacity:0"/>
			<stop  offset="4.178309e-02" style="stop-color:#FFFFFF;stop-opacity:8.356619e-02"/>
			<stop  offset="0.5" style="stop-color:#FFFFFF"/>
			<stop  offset="1" style="stop-color:#FFFFFF;stop-opacity:0"/>
		</linearGradient>

			<line fill="url(#SVGID_3_)" stroke="url(#SVGID_4_)" stroke-width="8" stroke-miterlimit="10" x1="11.8" y1="441.9" x2="303.2" y2="442"/>
		<linearGradient id="SVGID_5_" gradientUnits="userSpaceOnUse" x1="11.7782" y1="367.7431" x2="303.2218" y2="367.7431">
			<stop  offset="0" style="stop-color:#FFFFFF"/>
			<stop  offset="1" style="stop-color:#000000"/>
		</linearGradient>
		<linearGradient id="SVGID_6_" gradientUnits="userSpaceOnUse" x1="11.4853" y1="367.7431" x2="303.5147" y2="367.7431">
			<stop  offset="0" style="stop-color:#FFFFFF;stop-opacity:0"/>
			<stop  offset="4.178309e-02" style="stop-color:#FFFFFF;stop-opacity:8.356619e-02"/>
			<stop  offset="0.5" style="stop-color:#FFFFFF"/>
			<stop  offset="1" style="stop-color:#FFFFFF;stop-opacity:0"/>
		</linearGradient>

			<line fill="url(#SVGID_5_)" stroke="url(#SVGID_6_)" stroke-width="8" stroke-miterlimit="10" x1="11.8" y1="357" x2="303.2" y2="378.4"/>
	</g>
</g>
</svg>
