<?xml version="1.0" encoding="utf-8"?>
<!-- Generator: Adobe Illustrator 18.1.0, SVG Export Plug-In . SVG Version: 6.00 Build 0)  -->
<!DOCTYPE svg PUBLIC "-//W3C//DTD SVG 1.0//EN" "http://www.w3.org/TR/2001/REC-SVG-20010904/DTD/svg10.dtd">
<svg version="1.0" id="Layer_1" xmlns="http://www.w3.org/2000/svg" xmlns:xlink="http://www.w3.org/1999/xlink" x="0px" y="0px"
	 viewBox="0 0 482 482" style="enable-background:new 0 0 482 482;" xml:space="preserve">
<path style="fill:#FFFFFF;" d="M241,0C108.1,0,0.3,107.8,0.3,240.7c0,106.3,69,196.5,164.6,228.4c12,2.2,16.4-5.2,16.4-11.6
	c0-5.7-0.2-20.8-0.3-40.9c-66.9,14.5-81.1-32.3-81.1-32.3c-10.9-27.8-26.7-35.2-26.7-35.2c-21.9-14.9,1.7-14.6,1.7-14.6
	c24.2,1.7,36.9,24.8,36.9,24.8c21.5,36.8,56.3,26.2,70.1,20c2.2-15.6,8.4-26.2,15.3-32.2c-53.4-6.1-109.6-26.7-109.6-119
	c0-26.3,9.4-47.8,24.8-64.6c-2.5-6.1-10.7-30.6,2.4-63.7c0,0,20.2-6.5,66.2,24.7c19.2-5.3,39.8-8,60.3-8.1c20.4,0.1,41,2.8,60.3,8.1
	c45.9-31.1,66.1-24.7,66.1-24.7c13.1,33.1,4.9,57.6,2.4,63.7c15.4,16.8,24.7,38.3,24.7,64.6c0,92.5-56.3,112.8-109.9,118.8
	c8.7,7.4,16.3,22.1,16.3,44.6c0,32.2-0.3,58.1-0.3,66c0,6.4,4.3,13.9,16.6,11.6c95.6-31.9,164.5-122,164.5-228.3
	C481.7,107.8,373.9,0,241,0z"/>
</svg>
