<?xml version="1.0" encoding="utf-8"?>
<!-- Generator: Adobe Illustrator 18.0.0, SVG Export Plug-In . SVG Version: 6.00 Build 0)  -->
<!DOCTYPE svg PUBLIC "-//W3C//DTD SVG 1.1//EN" "http://www.w3.org/Graphics/SVG/1.1/DTD/svg11.dtd">
<svg version="1.1" id="Layer_1" xmlns="http://www.w3.org/2000/svg" xmlns:xlink="http://www.w3.org/1999/xlink" x="0px" y="0px"
	 viewBox="0 0 550 210.5" enable-background="new 0 0 550 210.5" xml:space="preserve">
<g>
	<g>
		<path d="M166.4,19.8h-10.5v-2h23.3v2h-10.5v31h-2.3V19.8z"/>
		<path d="M183.2,38.8c0-2,0.3-3.7,0.9-5.3c0.6-1.6,1.4-2.9,2.4-4c1-1.1,2.1-1.9,3.3-2.5c1.2-0.6,2.5-0.9,3.9-0.9
			c2.9,0,5.1,1,6.8,2.9c1.6,1.9,2.5,4.7,2.5,8.2c0,0.3,0,0.6,0,0.9c0,0.3,0,0.6-0.1,0.9h-17.3c0,1.5,0.3,2.9,0.7,4.2
			c0.4,1.3,1,2.4,1.8,3.3c0.8,0.9,1.7,1.6,2.8,2.2c1.1,0.5,2.3,0.8,3.7,0.8c1.3,0,2.5-0.2,3.5-0.6c1.1-0.4,2-0.9,2.9-1.6l0.9,1.7
			c-1,0.6-2,1.1-3.2,1.6c-1.2,0.5-2.6,0.8-4.4,0.8c-1.5,0-3-0.3-4.3-0.8s-2.5-1.4-3.5-2.5c-1-1.1-1.8-2.4-2.4-3.9
			C183.5,42.5,183.2,40.7,183.2,38.8z M200.8,37.3c0-3.1-0.6-5.4-1.9-7c-1.3-1.5-3-2.3-5.1-2.3c-1,0-2,0.2-3,0.7
			c-0.9,0.4-1.8,1-2.5,1.8s-1.4,1.8-1.9,2.9c-0.5,1.2-0.8,2.4-0.9,3.9H200.8z"/>
		<path d="M207.7,46.4c1,0.9,2.1,1.6,3.3,2.2c1.2,0.6,2.6,0.9,4.3,0.9c1.9,0,3.3-0.5,4.3-1.4c0.9-0.9,1.4-2.1,1.4-3.3
			c0-0.7-0.2-1.4-0.5-2c-0.4-0.6-0.8-1-1.4-1.5c-0.6-0.4-1.2-0.8-1.9-1c-0.7-0.3-1.4-0.6-2.1-0.9c-0.9-0.3-1.8-0.7-2.7-1
			c-0.9-0.4-1.7-0.8-2.5-1.3c-0.7-0.5-1.3-1.1-1.8-1.8c-0.4-0.7-0.7-1.6-0.7-2.6c0-0.9,0.2-1.7,0.5-2.5c0.3-0.8,0.8-1.5,1.5-2.1
			c0.7-0.6,1.5-1,2.4-1.4c1-0.3,2.1-0.5,3.3-0.5c1.3,0,2.5,0.2,3.7,0.7c1.2,0.5,2.3,1.1,3.1,1.8l-1.2,1.6c-0.8-0.6-1.6-1.1-2.5-1.5
			c-0.9-0.4-2-0.6-3.2-0.6c-0.9,0-1.7,0.1-2.4,0.4c-0.7,0.2-1.2,0.6-1.7,1c-0.5,0.4-0.8,0.9-1,1.4c-0.2,0.5-0.3,1.1-0.3,1.6
			c0,0.7,0.2,1.3,0.5,1.8c0.3,0.5,0.7,0.9,1.3,1.3c0.5,0.4,1.1,0.7,1.8,1c0.7,0.3,1.4,0.6,2.1,0.8c0.9,0.4,1.9,0.7,2.8,1.1
			c0.9,0.4,1.8,0.8,2.5,1.4s1.4,1.2,1.8,2s0.7,1.8,0.7,2.9c0,0.9-0.2,1.8-0.5,2.6c-0.4,0.8-0.9,1.5-1.6,2.2
			c-0.7,0.6-1.5,1.1-2.5,1.5s-2.1,0.5-3.5,0.5c-1.8,0-3.4-0.3-4.9-1c-1.5-0.7-2.8-1.4-3.9-2.3L207.7,46.4z"/>
		<path d="M230.2,28.6h-3.8v-1.7l3.8-0.2l0.3-7h1.9v7h7v1.9h-7v15.7c0,0.8,0.1,1.5,0.2,2.1c0.1,0.6,0.3,1.1,0.6,1.6
			c0.3,0.5,0.7,0.8,1.2,1c0.5,0.2,1.2,0.4,2,0.4c0.5,0,1-0.1,1.5-0.2c0.5-0.2,1-0.3,1.5-0.5l0.6,1.8c-0.7,0.3-1.4,0.5-2.1,0.6
			c-0.7,0.2-1.3,0.2-1.8,0.2c-1.2,0-2.1-0.2-2.9-0.5c-0.8-0.4-1.4-0.8-1.9-1.5c-0.5-0.6-0.8-1.4-1-2.3c-0.2-0.9-0.3-1.9-0.3-3V28.6z
			"/>
		<path d="M243.2,38.8c0-2,0.3-3.7,0.9-5.3c0.6-1.6,1.4-2.9,2.4-4c1-1.1,2.1-1.9,3.3-2.5c1.2-0.6,2.5-0.9,3.9-0.9
			c2.9,0,5.1,1,6.8,2.9c1.6,1.9,2.5,4.7,2.5,8.2c0,0.3,0,0.6,0,0.9c0,0.3,0,0.6-0.1,0.9h-17.3c0,1.5,0.3,2.9,0.7,4.2
			c0.4,1.3,1,2.4,1.8,3.3c0.8,0.9,1.7,1.6,2.8,2.2c1.1,0.5,2.3,0.8,3.7,0.8c1.3,0,2.5-0.2,3.5-0.6c1.1-0.4,2-0.9,2.9-1.6l0.9,1.7
			c-1,0.6-2,1.1-3.2,1.6c-1.2,0.5-2.6,0.8-4.4,0.8c-1.5,0-3-0.3-4.3-0.8s-2.5-1.4-3.5-2.5c-1-1.1-1.8-2.4-2.4-3.9
			C243.5,42.5,243.2,40.7,243.2,38.8z M260.8,37.3c0-3.1-0.6-5.4-1.9-7c-1.3-1.5-3-2.3-5.1-2.3c-1,0-2,0.2-3,0.7
			c-0.9,0.4-1.8,1-2.5,1.8s-1.4,1.8-1.9,2.9c-0.5,1.2-0.8,2.4-0.9,3.9H260.8z"/>
		<path d="M267.4,38.8c0-1.9,0.3-3.7,0.9-5.2c0.6-1.6,1.3-2.9,2.3-4c1-1.1,2.1-1.9,3.4-2.5c1.3-0.6,2.6-0.9,4.1-0.9
			c1.5,0,2.7,0.3,3.8,0.8c1.1,0.5,2.2,1.2,3.4,2.2l-0.1-4.4v-9.9h2.2v36h-1.9l-0.2-3.1h-0.1c-1,1-2.1,1.8-3.4,2.6s-2.8,1.1-4.4,1.1
			c-3,0-5.4-1.1-7.2-3.2C268.3,45.9,267.4,42.8,267.4,38.8z M269.7,38.8c0,1.6,0.2,3,0.5,4.3c0.4,1.3,0.9,2.4,1.5,3.3
			c0.7,0.9,1.5,1.6,2.5,2.2c1,0.5,2.1,0.8,3.4,0.8c1.3,0,2.6-0.3,3.8-1c1.2-0.7,2.5-1.7,3.7-2.9V31.2c-1.3-1.1-2.5-1.9-3.6-2.4
			c-1.1-0.5-2.3-0.7-3.4-0.7c-1.2,0-2.3,0.3-3.4,0.8s-1.9,1.3-2.7,2.2s-1.3,2.1-1.8,3.4C269.9,35.9,269.7,37.3,269.7,38.8z"/>
		<path d="M304.5,38.8c0-2,0.3-3.8,0.9-5.4c0.6-1.6,1.4-2.9,2.4-4c1-1.1,2.1-1.9,3.4-2.5c1.3-0.6,2.7-0.9,4.1-0.9
			c1.4,0,2.8,0.3,4.1,0.9c1.3,0.6,2.5,1.4,3.5,2.5c1,1.1,1.8,2.4,2.3,4c0.6,1.6,0.9,3.4,0.9,5.4s-0.3,3.8-0.9,5.3s-1.4,2.9-2.3,3.9
			c-1,1.1-2.1,1.9-3.5,2.5c-1.3,0.6-2.7,0.8-4.1,0.8c-1.4,0-2.8-0.3-4.1-0.8s-2.4-1.4-3.4-2.5c-1-1.1-1.8-2.4-2.4-3.9
			S304.5,40.8,304.5,38.8z M306.8,38.8c0,1.6,0.2,3,0.7,4.3c0.4,1.3,1,2.4,1.8,3.4s1.6,1.7,2.7,2.2c1,0.5,2.1,0.8,3.3,0.8
			s2.3-0.3,3.4-0.8s2-1.2,2.7-2.2s1.3-2.1,1.8-3.4c0.4-1.3,0.6-2.7,0.6-4.3c0-1.6-0.2-3-0.6-4.3c-0.4-1.3-1-2.4-1.8-3.4
			c-0.8-1-1.7-1.7-2.7-2.2s-2.2-0.8-3.4-0.8s-2.3,0.3-3.3,0.8c-1,0.5-1.9,1.2-2.7,2.2c-0.8,0.9-1.3,2.1-1.8,3.4
			C307,35.7,306.8,37.2,306.8,38.8z"/>
		<path d="M333.3,26.7h1.9l0.2,3.7h0.2c1.2-1.2,2.5-2.3,3.8-3.1c1.3-0.8,2.8-1.2,4.5-1.2c2.5,0,4.3,0.8,5.5,2.2
			c1.2,1.5,1.8,3.8,1.8,7v15.4h-2.2V35.6c0-2.6-0.4-4.5-1.3-5.7c-0.8-1.2-2.3-1.8-4.2-1.8c-1.4,0-2.7,0.4-3.9,1.1s-2.5,1.9-4,3.4
			v18.1h-2.2V26.7z"/>
		<path d="M371,20.9c-0.6,0-1-0.2-1.4-0.6c-0.4-0.4-0.6-0.8-0.6-1.4c0-0.6,0.2-1.1,0.6-1.5c0.4-0.3,0.9-0.5,1.4-0.5
			c0.6,0,1,0.2,1.4,0.5c0.4,0.4,0.6,0.8,0.6,1.5c0,0.6-0.2,1-0.6,1.4C372,20.7,371.5,20.9,371,20.9z M369.8,26.7h2.2v24h-2.2V26.7z"
			/>
		<path d="M381.5,17.8h9c1.8,0,3.5,0.2,4.9,0.5c1.5,0.3,2.7,0.8,3.7,1.6c1,0.7,1.8,1.7,2.3,2.9s0.8,2.6,0.8,4.3c0,3.2-1,5.6-3.1,7.2
			c-2.1,1.6-5,2.4-8.6,2.4h-6.7v14.2h-2.3V17.8z M390,34.6c3.4,0,5.9-0.6,7.5-1.8s2.5-3.1,2.5-5.8c0-1.4-0.2-2.6-0.6-3.5
			c-0.4-0.9-1-1.7-1.8-2.2c-0.8-0.6-1.9-1-3.1-1.2c-1.2-0.2-2.7-0.3-4.4-0.3h-6.1v14.9H390z"/>
		<path d="M409.2,14.8h2.2v10.4v5.3c1.3-1.3,2.6-2.3,3.9-3.1c1.3-0.8,2.8-1.2,4.5-1.2c2.5,0,4.3,0.8,5.5,2.2c1.2,1.5,1.8,3.8,1.8,7
			v15.4h-2.2V35.6c0-2.6-0.4-4.5-1.3-5.7c-0.8-1.2-2.3-1.8-4.2-1.8c-1.4,0-2.7,0.4-3.9,1.1s-2.5,1.9-4,3.4v18.1h-2.2V14.8z"/>
		<path d="M433.6,38.8c0-2,0.3-3.8,0.9-5.4c0.6-1.6,1.4-2.9,2.3-4c1-1.1,2.1-1.9,3.4-2.5c1.3-0.6,2.7-0.9,4.1-0.9
			c1.4,0,2.8,0.3,4.1,0.9c1.3,0.6,2.5,1.4,3.4,2.5s1.8,2.4,2.4,4c0.6,1.6,0.9,3.4,0.9,5.4s-0.3,3.8-0.9,5.3
			c-0.6,1.5-1.4,2.9-2.4,3.9c-1,1.1-2.1,1.9-3.4,2.5c-1.3,0.6-2.7,0.8-4.1,0.8c-1.4,0-2.8-0.3-4.1-0.8s-2.4-1.4-3.4-2.5
			c-1-1.1-1.8-2.4-2.3-3.9C433.9,42.5,433.6,40.8,433.6,38.8z M435.9,38.8c0,1.6,0.2,3,0.6,4.3s1,2.4,1.8,3.4s1.6,1.7,2.7,2.2
			s2.2,0.8,3.4,0.8c1.2,0,2.3-0.3,3.4-0.8c1-0.5,1.9-1.2,2.7-2.2s1.3-2.1,1.8-3.4c0.4-1.3,0.7-2.7,0.7-4.3c0-1.6-0.2-3-0.7-4.3
			c-0.4-1.3-1-2.4-1.8-3.4c-0.8-1-1.6-1.7-2.7-2.2c-1.1-0.5-2.2-0.8-3.4-0.8c-1.2,0-2.3,0.3-3.4,0.8s-1.9,1.2-2.7,2.2
			c-0.8,0.9-1.3,2.1-1.8,3.4C436.1,35.7,435.9,37.2,435.9,38.8z"/>
		<path d="M462.4,26.7h1.9l0.2,3.7h0.2c1.2-1.2,2.5-2.3,3.8-3.1c1.3-0.8,2.8-1.2,4.5-1.2c2.5,0,4.3,0.8,5.5,2.2
			c1.2,1.5,1.8,3.8,1.8,7v15.4h-2.2V35.6c0-2.6-0.4-4.5-1.3-5.7c-0.8-1.2-2.3-1.8-4.2-1.8c-1.4,0-2.7,0.4-3.9,1.1s-2.5,1.9-4,3.4
			v18.1h-2.2V26.7z"/>
		<path d="M487,38.8c0-2,0.3-3.7,0.9-5.3c0.6-1.6,1.4-2.9,2.4-4c1-1.1,2.1-1.9,3.3-2.5c1.2-0.6,2.5-0.9,3.9-0.9c2.9,0,5.1,1,6.8,2.9
			c1.6,1.9,2.5,4.7,2.5,8.2c0,0.3,0,0.6,0,0.9c0,0.3,0,0.6-0.1,0.9h-17.3c0,1.5,0.3,2.9,0.7,4.2c0.4,1.3,1,2.4,1.8,3.3
			c0.8,0.9,1.7,1.6,2.8,2.2c1.1,0.5,2.3,0.8,3.7,0.8c1.3,0,2.5-0.2,3.5-0.6c1-0.4,2-0.9,2.9-1.6l0.9,1.7c-1,0.6-2,1.1-3.2,1.6
			c-1.2,0.5-2.6,0.8-4.4,0.8c-1.5,0-3-0.3-4.3-0.8c-1.4-0.6-2.5-1.4-3.5-2.5c-1-1.1-1.8-2.4-2.4-3.9C487.3,42.5,487,40.7,487,38.8z
			 M504.5,37.3c0-3.1-0.6-5.4-1.9-7c-1.3-1.5-3-2.3-5.2-2.3c-1,0-2,0.2-3,0.7s-1.8,1-2.5,1.8s-1.4,1.8-1.9,2.9
			c-0.5,1.2-0.8,2.4-0.9,3.9H504.5z"/>
		<path d="M540.9,41.2h-4.8v9.5H534v-9.5h-14.7v-1.3l14.8-21.1h2v20.5h4.8V41.2z M534,39.3V27.6c0-0.7,0-1.6,0-2.8
			c0-1.1,0.1-2,0.2-2.8H534c-0.4,0.7-0.8,1.3-1.2,2c-0.4,0.6-0.9,1.3-1.4,2L522,39.3H534z"/>
		<path d="M544.8,57c1.1-0.6,2-1.4,2.8-2.4c0.7-1,1.1-2.2,1.1-3.6c-0.1,0-0.3,0-0.6,0c-0.6,0-1.1-0.2-1.5-0.5
			c-0.4-0.4-0.6-0.9-0.6-1.6c0-0.7,0.2-1.2,0.7-1.5c0.4-0.4,0.9-0.5,1.5-0.5c0.8,0,1.4,0.3,1.8,1c0.5,0.6,0.7,1.5,0.7,2.6
			c0,1.8-0.5,3.5-1.5,4.9c-1,1.4-2.2,2.5-3.7,3.3L544.8,57z"/>
		<path d="M160.2,80.9c-0.6,0-1-0.2-1.4-0.6c-0.4-0.4-0.6-0.8-0.6-1.4c0-0.6,0.2-1.1,0.6-1.5c0.4-0.3,0.9-0.5,1.4-0.5
			c0.6,0,1,0.2,1.4,0.5c0.4,0.4,0.6,0.8,0.6,1.5c0,0.6-0.2,1-0.6,1.4C161.2,80.7,160.7,80.9,160.2,80.9z M159,86.7h2.2v24H159V86.7z
			"/>
		<path d="M170.7,77.8h9c1.8,0,3.5,0.2,4.9,0.5c1.5,0.3,2.7,0.8,3.7,1.6c1,0.7,1.8,1.7,2.3,2.9s0.8,2.6,0.8,4.3c0,3.2-1,5.6-3.1,7.2
			c-2.1,1.6-5,2.4-8.6,2.4H173v14.2h-2.3V77.8z M179.2,94.6c3.4,0,5.9-0.6,7.5-1.8c1.6-1.2,2.5-3.1,2.5-5.8c0-1.4-0.2-2.6-0.6-3.5
			c-0.4-0.9-1-1.7-1.9-2.2c-0.8-0.6-1.9-1-3.1-1.2c-1.2-0.2-2.7-0.3-4.4-0.3H173v14.9H179.2z"/>
		<path d="M197.1,104.7c0-2.6,1.2-4.7,3.8-6c2.5-1.4,6.4-2.4,11.8-3c0-0.9,0-1.8-0.2-2.7c-0.2-0.9-0.4-1.7-0.9-2.5
			c-0.4-0.7-1-1.3-1.8-1.8c-0.8-0.4-1.7-0.7-2.9-0.7c-1.6,0-3.1,0.3-4.5,1c-1.3,0.6-2.4,1.2-3.2,1.8l-1-1.6c0.4-0.3,1-0.6,1.6-1
			c0.6-0.4,1.3-0.7,2.1-1s1.6-0.6,2.5-0.8c0.9-0.2,1.8-0.3,2.8-0.3c1.4,0,2.6,0.2,3.6,0.7c1,0.5,1.8,1.1,2.3,2
			c0.6,0.8,1,1.8,1.3,2.9c0.2,1.1,0.4,2.3,0.4,3.6v15.4h-1.9l-0.2-3.1h-0.1c-1.2,1-2.6,1.8-4,2.6c-1.4,0.8-2.9,1.1-4.5,1.1
			c-1,0-1.9-0.1-2.7-0.4c-0.8-0.3-1.6-0.7-2.2-1.2c-0.7-0.5-1.2-1.2-1.5-2C197.3,106.8,197.1,105.8,197.1,104.7z M199.4,104.6
			c0,1.7,0.5,3,1.5,3.7c1,0.7,2.2,1.1,3.6,1.1c1.4,0,2.7-0.3,4-1c1.3-0.7,2.6-1.6,4.1-2.9v-8.2c-2.5,0.3-4.5,0.7-6.2,1.1
			c-1.7,0.4-3,1-4.1,1.5c-1,0.6-1.8,1.3-2.2,2C199.6,102.8,199.4,103.7,199.4,104.6z"/>
		<path d="M221.4,98.8c0-1.9,0.3-3.7,0.9-5.2c0.6-1.6,1.3-2.9,2.3-4c1-1.1,2.1-1.9,3.4-2.5c1.3-0.6,2.6-0.9,4.1-0.9
			c1.5,0,2.7,0.3,3.8,0.8c1.1,0.5,2.2,1.2,3.4,2.2l-0.1-4.4v-9.9h2.2v36h-1.9l-0.2-3.1h-0.1c-1,1-2.1,1.8-3.4,2.6
			c-1.3,0.8-2.8,1.1-4.4,1.1c-3,0-5.4-1.1-7.2-3.2C222.3,105.9,221.4,102.8,221.4,98.8z M223.7,98.8c0,1.6,0.2,3,0.5,4.3
			c0.4,1.3,0.9,2.4,1.5,3.3c0.7,0.9,1.5,1.6,2.5,2.2c1,0.5,2.1,0.8,3.4,0.8c1.3,0,2.6-0.3,3.8-1c1.2-0.7,2.5-1.7,3.7-2.9V91.2
			c-1.3-1.1-2.5-1.9-3.6-2.4c-1.1-0.5-2.3-0.7-3.4-0.7c-1.2,0-2.3,0.3-3.4,0.8s-1.9,1.3-2.7,2.2s-1.3,2.1-1.8,3.4
			C223.9,95.9,223.7,97.3,223.7,98.8z"/>
		<path d="M260.8,77.8h3.2l6.9,19.3l2.6,7.3h0.2l2.5-7.3l6.9-19.3h3.2v33h-2.2V89.1c0-1.4,0-2.8,0.1-4.4c0.1-1.6,0.1-3.1,0.2-4.5
			h-0.2l-2.6,7.2l-7.1,19.7h-2l-7.1-19.7l-2.6-7.2h-0.2c0.1,1.4,0.1,2.9,0.2,4.5c0.1,1.6,0.1,3.1,0.1,4.4v21.7h-2.1V77.8z"/>
		<path d="M297,80.9c-0.6,0-1-0.2-1.4-0.6c-0.4-0.4-0.6-0.8-0.6-1.4c0-0.6,0.2-1.1,0.6-1.5c0.4-0.3,0.9-0.5,1.4-0.5
			c0.6,0,1,0.2,1.4,0.5c0.4,0.4,0.6,0.8,0.6,1.5c0,0.6-0.2,1-0.6,1.4C298,80.7,297.5,80.9,297,80.9z M295.8,86.7h2.2v24h-2.2V86.7z"
			/>
		<path d="M307.3,86.7h1.9l0.2,3.7h0.1c1.2-1.2,2.5-2.3,3.8-3.1c1.3-0.8,2.8-1.2,4.5-1.2c2.5,0,4.3,0.8,5.5,2.2s1.8,3.8,1.8,7v15.4
			h-2.2V95.6c0-2.6-0.4-4.5-1.3-5.7c-0.9-1.2-2.3-1.8-4.2-1.8c-1.4,0-2.7,0.4-3.9,1.1c-1.2,0.8-2.5,1.9-4,3.4v18.1h-2.2V86.7z"/>
		<path d="M335,80.9c-0.6,0-1-0.2-1.4-0.6c-0.4-0.4-0.6-0.8-0.6-1.4c0-0.6,0.2-1.1,0.6-1.5c0.4-0.3,0.9-0.5,1.4-0.5
			c0.6,0,1,0.2,1.4,0.5c0.4,0.4,0.6,0.8,0.6,1.5c0,0.6-0.2,1-0.6,1.4C336.1,80.7,335.6,80.9,335,80.9z M333.9,86.7h2.2v24h-2.2V86.7
			z"/>
		<path d="M343.1,117c1.1-0.6,2-1.4,2.8-2.4c0.7-1,1.1-2.2,1.1-3.6c-0.1,0-0.3,0-0.6,0c-0.6,0-1.1-0.2-1.5-0.5
			c-0.4-0.4-0.6-0.9-0.6-1.6c0-0.7,0.2-1.2,0.7-1.5c0.4-0.4,0.9-0.5,1.5-0.5c0.8,0,1.4,0.3,1.8,1c0.5,0.6,0.7,1.5,0.7,2.6
			c0,1.8-0.5,3.5-1.5,4.9c-1,1.4-2.2,2.5-3.7,3.3L343.1,117z"/>
		<path d="M366.5,77.8h2.4l13.9,23.2l3.7,6.5h0.2c-0.1-1.6-0.1-3.2-0.2-4.8c-0.1-1.6-0.1-3.2-0.1-4.8V77.8h2.2v33h-2.4l-13.9-23.2
			l-3.7-6.5h-0.2c0.1,1.6,0.1,3.2,0.2,4.7c0.1,1.5,0.1,3.1,0.1,4.7v20.5h-2.2V77.8z"/>
		<path d="M396,98.8c0-2,0.3-3.7,0.9-5.3c0.6-1.6,1.4-2.9,2.4-4c1-1.1,2.1-1.9,3.3-2.5c1.2-0.6,2.5-0.9,3.9-0.9c2.9,0,5.1,1,6.8,2.9
			c1.6,1.9,2.5,4.7,2.5,8.2c0,0.3,0,0.6,0,0.9c0,0.3,0,0.6-0.1,0.9h-17.3c0,1.5,0.3,2.9,0.7,4.2c0.4,1.3,1,2.4,1.8,3.3
			c0.8,0.9,1.7,1.6,2.8,2.2c1.1,0.5,2.3,0.8,3.7,0.8c1.3,0,2.5-0.2,3.5-0.6c1-0.4,2-0.9,2.9-1.6l0.9,1.7c-1,0.6-2,1.1-3.2,1.6
			c-1.2,0.5-2.6,0.8-4.4,0.8c-1.5,0-3-0.3-4.3-0.8c-1.4-0.6-2.5-1.4-3.5-2.5c-1-1.1-1.8-2.4-2.4-3.9C396.3,102.5,396,100.7,396,98.8
			z M413.6,97.3c0-3.1-0.6-5.4-1.9-7c-1.3-1.5-3-2.3-5.2-2.3c-1,0-2,0.2-3,0.7s-1.8,1-2.5,1.8s-1.4,1.8-1.9,2.9
			c-0.5,1.2-0.8,2.4-0.9,3.9H413.6z"/>
		<path d="M426.4,98.2l-7.5-11.5h2.5l3.9,6.1c0.4,0.7,0.8,1.3,1.2,2c0.4,0.6,0.9,1.3,1.3,2h0.2c0.4-0.7,0.8-1.3,1.2-2
			c0.4-0.7,0.8-1.3,1.2-2l3.8-6.1h2.3l-7.5,11.6l8.1,12.4h-2.4l-4.2-6.5c-0.5-0.8-0.9-1.5-1.4-2.2s-1-1.5-1.5-2.2h-0.2
			c-0.5,0.7-0.9,1.4-1.4,2.2c-0.4,0.7-0.9,1.5-1.4,2.2l-4.1,6.5h-2.3L426.4,98.2z"/>
		<path d="M442.2,86.7h2.2v15.1c0,2.6,0.4,4.5,1.3,5.7c0.9,1.2,2.2,1.8,4.2,1.8c1.4,0,2.7-0.4,3.9-1.2c1.2-0.8,2.5-2,3.8-3.7V86.7
			h2.2v24h-1.8l-0.2-4h-0.1c-1.2,1.4-2.4,2.5-3.7,3.3c-1.3,0.8-2.8,1.2-4.5,1.2c-2.5,0-4.3-0.8-5.5-2.2c-1.2-1.5-1.8-3.8-1.8-7V86.7
			z"/>
		<path d="M467.3,106.4c1,0.9,2.1,1.6,3.3,2.2c1.2,0.6,2.6,0.9,4.3,0.9c1.9,0,3.3-0.5,4.3-1.4c1-0.9,1.4-2.1,1.4-3.3
			c0-0.7-0.2-1.4-0.5-2c-0.4-0.6-0.8-1-1.4-1.5c-0.6-0.4-1.2-0.8-1.9-1c-0.7-0.3-1.4-0.6-2.1-0.9c-0.9-0.3-1.8-0.7-2.7-1
			c-0.9-0.4-1.7-0.8-2.5-1.3c-0.7-0.5-1.3-1.1-1.8-1.8c-0.4-0.7-0.7-1.6-0.7-2.6c0-0.9,0.2-1.7,0.5-2.5s0.8-1.5,1.5-2.1
			c0.7-0.6,1.5-1,2.4-1.4c1-0.3,2.1-0.5,3.3-0.5s2.5,0.2,3.7,0.7c1.2,0.5,2.3,1.1,3.1,1.8l-1.2,1.6c-0.8-0.6-1.7-1.1-2.5-1.5
			c-0.9-0.4-2-0.6-3.2-0.6c-0.9,0-1.7,0.1-2.4,0.4s-1.2,0.6-1.7,1c-0.5,0.4-0.8,0.9-1,1.4s-0.3,1.1-0.3,1.6c0,0.7,0.2,1.3,0.5,1.8
			c0.3,0.5,0.7,0.9,1.3,1.3s1.1,0.7,1.8,1c0.7,0.3,1.4,0.6,2.1,0.8c0.9,0.4,1.9,0.7,2.8,1.1c0.9,0.4,1.8,0.8,2.5,1.4s1.4,1.2,1.8,2
			s0.7,1.8,0.7,2.9c0,0.9-0.2,1.8-0.5,2.6c-0.4,0.8-0.9,1.5-1.6,2.2s-1.5,1.1-2.5,1.5s-2.2,0.5-3.5,0.5c-1.8,0-3.5-0.3-5-1
			c-1.5-0.7-2.8-1.4-3.8-2.3L467.3,106.4z"/>
		<path d="M517,101.2h-4.8v9.5h-2.2v-9.5h-14.7v-1.3l14.9-21.1h2v20.5h4.8V101.2z M510.1,99.3V87.6c0-0.7,0-1.6,0-2.8
			c0-1.1,0.1-2,0.2-2.8h-0.2c-0.4,0.7-0.8,1.3-1.2,2c-0.4,0.6-0.9,1.3-1.3,2l-9.4,13.2H510.1z"/>
		<path d="M181.8,171.3c-2.2-0.8-4.5-2.1-7.1-4.1c-1.2,1.2-2.5,2.2-4,3c-1.5,0.8-3.1,1.1-5,1.1c-1.3,0-2.5-0.2-3.7-0.6
			c-1.2-0.4-2.2-1-3-1.8c-0.9-0.8-1.5-1.7-2-2.8c-0.5-1.1-0.8-2.3-0.8-3.7c0-1.1,0.2-2.1,0.6-3c0.4-0.9,0.9-1.7,1.5-2.5
			c0.6-0.8,1.3-1.5,2.1-2.2c0.8-0.7,1.7-1.3,2.5-2c-0.7-1.4-1.2-2.8-1.6-4.2c-0.4-1.4-0.6-2.7-0.6-4c0-1.1,0.2-2,0.5-3
			c0.3-0.9,0.8-1.7,1.4-2.3c0.6-0.6,1.3-1.2,2.1-1.5c0.8-0.4,1.8-0.5,2.8-0.5c1.8,0,3.2,0.6,4.1,1.7c0.9,1.1,1.4,2.6,1.4,4.3
			c0,1.1-0.2,2-0.6,2.9c-0.4,0.9-1,1.7-1.7,2.5c-0.7,0.8-1.5,1.5-2.4,2.2c-0.9,0.7-1.8,1.4-2.8,2.1c1.2,2.1,2.6,4.1,4.2,6.1
			c1.6,2,3.3,3.7,5,5.2c1.2-1.5,2.2-3.2,3-5c0.9-1.8,1.6-3.8,2.1-5.9h2.1c-0.7,2.3-1.5,4.4-2.4,6.5s-2.1,3.9-3.4,5.6
			c1.2,0.9,2.3,1.7,3.3,2.3c1.1,0.6,2.1,1.1,3.1,1.5L181.8,171.3z M165.9,169.4c1.4,0,2.7-0.3,3.9-1c1.2-0.6,2.4-1.5,3.4-2.6
			c-1.8-1.6-3.5-3.4-5.1-5.4c-1.6-2-3.1-4.1-4.2-6.2c-0.7,0.6-1.4,1.2-2.1,1.8s-1.2,1.2-1.7,1.9s-0.9,1.3-1.2,2
			c-0.3,0.7-0.4,1.5-0.4,2.3c0,1.1,0.2,2.1,0.6,3c0.4,0.9,0.9,1.6,1.6,2.2c0.7,0.6,1.5,1.1,2.4,1.5
			C164,169.2,164.9,169.4,165.9,169.4z M162.8,144.4c0,1.1,0.2,2.2,0.5,3.4c0.3,1.2,0.8,2.4,1.4,3.6c0.8-0.6,1.6-1.2,2.4-1.8
			c0.8-0.6,1.5-1.2,2.1-1.9c0.6-0.7,1.1-1.4,1.4-2.1s0.5-1.5,0.5-2.4c0-0.5-0.1-1.1-0.2-1.6c-0.1-0.5-0.3-1-0.6-1.4
			c-0.3-0.4-0.7-0.7-1.1-1c-0.5-0.2-1-0.4-1.7-0.4c-1.5,0-2.6,0.5-3.4,1.6C163.2,141.6,162.8,142.9,162.8,144.4z"/>
		<path d="M198,137.8h2.3v31h15.2v2H198V137.8z"/>
		<path d="M219.2,154.2c0-2.6,0.4-5,1-7.1c0.7-2.1,1.7-3.9,3-5.4c1.3-1.5,2.8-2.6,4.6-3.4c1.8-0.8,3.8-1.2,6-1.2
			c1.1,0,2.1,0.1,3,0.3c0.9,0.2,1.7,0.5,2.4,0.9c0.7,0.4,1.4,0.8,2,1.3c0.6,0.5,1.1,0.9,1.5,1.4l-1.3,1.5c-0.9-0.9-1.9-1.7-3.1-2.4
			c-1.2-0.6-2.7-1-4.5-1c-1.9,0-3.6,0.3-5.1,1s-2.8,1.7-3.8,3c-1,1.3-1.9,2.8-2.4,4.7c-0.6,1.8-0.9,3.9-0.9,6.2
			c0,2.3,0.3,4.4,0.8,6.2c0.5,1.8,1.3,3.4,2.3,4.7c1,1.3,2.3,2.3,3.8,3c1.5,0.7,3.2,1.1,5,1.1c1.5,0,2.9-0.2,4.2-0.7
			c1.3-0.4,2.4-1,3.2-1.8v-10.2H233v-2h10.1v13c-1,1.1-2.4,2-4,2.7s-3.6,1-5.8,1c-2.1,0-4-0.4-5.8-1.2c-1.7-0.8-3.2-1.9-4.5-3.4
			c-1.2-1.5-2.2-3.3-2.9-5.4C219.6,159.2,219.2,156.8,219.2,154.2z"/>
		<path d="M259.4,154.2c0-2.6,0.4-5,1-7.1c0.7-2.1,1.7-3.9,3-5.4c1.3-1.5,2.8-2.6,4.6-3.4c1.8-0.8,3.8-1.2,6-1.2
			c1.1,0,2.1,0.1,3,0.3c0.9,0.2,1.7,0.5,2.5,0.9c0.7,0.4,1.4,0.8,2,1.3s1.1,0.9,1.5,1.4l-1.3,1.5c-0.9-0.9-1.9-1.7-3.1-2.4
			c-1.2-0.6-2.7-1-4.5-1c-1.9,0-3.6,0.3-5.1,1s-2.8,1.7-3.8,3c-1,1.3-1.9,2.8-2.4,4.7c-0.6,1.8-0.9,3.9-0.9,6.2
			c0,2.3,0.3,4.4,0.8,6.2c0.5,1.8,1.3,3.4,2.3,4.7c1,1.3,2.3,2.3,3.8,3c1.5,0.7,3.2,1.1,5,1.1c1.5,0,2.9-0.2,4.2-0.7
			c1.3-0.4,2.4-1,3.2-1.8v-10.2h-7.9v-2h10.1v13c-1,1.1-2.4,2-4,2.7c-1.7,0.7-3.6,1-5.8,1c-2.1,0-4-0.4-5.8-1.2
			c-1.7-0.8-3.2-1.9-4.5-3.4c-1.2-1.5-2.2-3.3-2.9-5.4C259.8,159.2,259.4,156.8,259.4,154.2z"/>
		<path d="M289.7,165.3c0.5,0.5,1,1,1.5,1.5s1.2,0.9,1.9,1.3c0.7,0.4,1.5,0.7,2.4,0.9c0.9,0.2,1.9,0.3,3,0.3c1.1,0,2.1-0.2,3-0.5
			c0.9-0.3,1.7-0.8,2.4-1.4c0.7-0.6,1.2-1.4,1.5-2.2c0.4-0.9,0.5-1.8,0.5-2.9c0-1.1-0.2-2.1-0.6-3c-0.4-0.9-1.1-1.7-2-2.3
			c-0.9-0.6-2-1.2-3.5-1.5c-1.4-0.4-3.1-0.5-5.1-0.5v-2c1.8,0,3.4-0.2,4.7-0.5s2.3-0.9,3.1-1.5c0.8-0.6,1.4-1.3,1.7-2.2
			c0.4-0.8,0.5-1.8,0.5-2.7c0-1.8-0.6-3.2-1.8-4.3c-1.2-1.1-2.7-1.6-4.7-1.6c-1.5,0-2.9,0.3-4.1,1c-1.2,0.7-2.3,1.5-3.2,2.5
			l-1.3-1.5c1.1-1.1,2.4-2,3.8-2.8c1.4-0.8,3-1.1,4.9-1.1c1.2,0,2.4,0.2,3.5,0.5c1.1,0.4,2,0.9,2.8,1.5c0.8,0.7,1.4,1.5,1.9,2.4
			s0.7,2,0.7,3.3c0,2.1-0.6,3.8-1.7,5.1c-1.2,1.3-2.6,2.2-4.4,2.8v0.2c1,0.2,1.9,0.5,2.8,1c0.9,0.5,1.6,1.1,2.3,1.8
			c0.7,0.7,1.2,1.5,1.6,2.4c0.4,0.9,0.6,1.9,0.6,3.1c0,1.4-0.2,2.7-0.8,3.8s-1.2,2.1-2.1,2.8c-0.9,0.8-1.9,1.4-3.1,1.8
			c-1.2,0.4-2.5,0.6-3.8,0.6c-1.3,0-2.4-0.1-3.5-0.4c-1-0.3-2-0.6-2.8-1.1c-0.8-0.4-1.5-0.9-2.2-1.4c-0.6-0.5-1.2-1.1-1.7-1.6
			L289.7,165.3z"/>
	</g>
	<g>
		<g>
			<g>
				<g>
					<path d="M106.2,151.6c15.4,0,27.9,12.5,27.9,27.9s-12.5,27.9-27.9,27.9S78.3,195,78.3,179.6S90.8,151.6,106.2,151.6
						 M106.2,148.6c-17.1,0-30.9,13.9-30.9,30.9c0,17.1,13.9,30.9,30.9,30.9c17.1,0,30.9-13.9,30.9-30.9
						C137.2,162.5,123.3,148.6,106.2,148.6L106.2,148.6z"/>
				</g>
			</g>
			<path d="M93,147.4V14.3C93,6.7,86.4,0,78.8,0h-65C6.3,0,0,6.7,0,14.3V158c0,7.6,6.3,13,13.8,13h58.5C74.5,160,82,151.4,93,147.4z
				 M39.5,15h13.7c0.9,0,1.7,1.1,1.7,2c0,0.9-0.8,2-1.7,2H39.5c-0.9,0-1.7-1.1-1.7-2C37.8,16.1,38.6,15,39.5,15z M8,144V29h76v115H8
				z M45.8,163.6c-3.8,0-6.8-3.1-6.8-6.8c0-3.8,3.1-6.8,6.8-6.8c3.8,0,6.8,3.1,6.8,6.8C52.7,160.5,49.6,163.6,45.8,163.6z"/>
		</g>
		<g>
			<polygon points="97.8,193.5 86.1,181.8 88.3,179.6 97.7,189 119.8,166.9 122.1,169.1 			"/>
		</g>
	</g>
</g>
</svg>
