<?xml version="1.0" encoding="utf-8"?>
<!-- Generator: Adobe Illustrator 18.1.0, SVG Export Plug-In . SVG Version: 6.00 Build 0)  -->
<!DOCTYPE svg PUBLIC "-//W3C//DTD SVG 1.0//EN" "http://www.w3.org/TR/2001/REC-SVG-20010904/DTD/svg10.dtd">
<svg version="1.0" id="Layer_1" xmlns="http://www.w3.org/2000/svg" xmlns:xlink="http://www.w3.org/1999/xlink" x="0px" y="0px"
	 viewBox="0 0 482 939" style="enable-background:new 0 0 482 939;" xml:space="preserve">
<g>
	<g>
		<path style="fill:#FF6666;" d="M262.6,833.7c-14.9,1.1-27.1,15.7-27.1,32.7c0,17,12.2,29.8,27.1,28.5
			c14.8-1.2,26.8-15.8,26.8-32.7C289.4,845.4,277.4,832.6,262.6,833.7z"/>
		<path style="fill:#FF6666;" d="M447.5,214.7c-0.1,0-1.5,0-1.5,0v0.1c0,0,0-0.1-0.1-0.1c0,0,0.1,0,0.1,0v-124
			c0-33.7-21.2-63.2-50.2-65.8l-274-24.2C89.2-2.2,64,25.2,64,61.5v816.7c0,36.3,25.9,63.1,58.6,60.2l273.1-24.2
			c29-2.6,50.3-31.5,50.3-65.2V278.2c0,0,1.7,0,1.7,0c0,0,0.9,0,0.9,0c0.1,0,0.1,0,0.2,0c2.9-0.1,5.2-2.8,5.2-6.3v-50.3
			C454,218.1,450.4,215.1,447.5,214.7z"/>
	</g>
	<g>
		<path style="fill:#FFE6E6;" d="M287.2,833.7c-14.5,1.1-26.4,15.7-26.4,32.7c0,17,11.8,29.8,26.4,28.5
			c14.5-1.2,26.1-15.8,26.1-32.7C313.3,845.4,301.6,832.6,287.2,833.7z"/>
		<path style="fill:#FFE6E6;" d="M467.5,214.7c-0.1,0,0.5,0,0.5,0v0.1c0,0,0-0.1-0.1-0.1c0,0,0.1,0,0.1,0v-124
			c0-33.7-21.7-63.2-49.9-65.8L149.7,0.7C117.9-2.2,92,25.2,92,61.5v138.7l-0.3-0.1c-3.5-0.2-4.7,2.1-4.7,6v54.3
			c0,3.9,1.2,6.2,4.7,6.3l0.3,0V283l-0.6-0.1c-3.5-0.1-4.4,4.1-4.4,8v54.4c0,3.9,0.9,6.6,4.4,6.7l0.6,0v526
			c0,36.3,26.1,63.1,57.9,60.2l267.6-24.2c28.3-2.6,50.5-31.5,50.5-65.2V278.2c0,0,0.6,0,0.6,0c0,0,0.4,0,0.4,0c0.1,0-1,0-0.9,0
			c2.8-0.1,4-2.8,4-6.3v-50.3C472,218.1,470.4,215.1,467.5,214.7z M288.3,34.7c3.1,0.3,5.6,3.4,5.6,7.1c0,3.6-2.5,6.4-5.6,6.1
			c-3.1-0.3-5.7-3.4-5.7-7.1C282.7,37.1,285.2,34.4,288.3,34.7z M318,76c0,2.7-0.9,4.7-3.1,4.5l-55.7-4.3c-2.3-0.2-5.1-2.5-5.1-5.2
			v-2.4c0-2.7,3.3-4.8,5.6-4.6l54.6,4.4c2.3,0.2,3.8,2.5,3.8,5.2V76z M226.2,56.8c4.1,0.3,7.4,4.4,7.4,9.1c0,4.7-3.3,8.3-7.4,8
			c-4.1-0.3-7.4-4.4-7.4-9.1C218.8,60.1,222.1,56.5,226.2,56.8z M287.2,899.7c-16.8,1.4-30.5-13.3-30.5-33s13.7-36.6,30.5-37.8
			c16.7-1.2,30.1,13.6,30.1,33C317.3,881.4,303.9,898.2,287.2,899.7z M452,805.7L115,829V108.7l337,23.4V805.7z"/>
	</g>
	<polygon style="fill:#FF6666;" points="453.5,805.7 115.4,829 115.4,108.7 453.5,132.1 	"/>
	<g>
		<polygon style="fill:#FF6666;" points="452.8,805.7 114.6,829.1 114.6,108.7 452.8,132.1 		"/>
		<path style="fill:#FFFFFF;" d="M452.8,150.8l-72.3-4.7c-16.8-1.1-30.7,13.8-30.7,33.8v578.9c0,20,14,35.3,30.7,34.2l72.3-4.7
			V150.8z"/>
		<path style="fill:#CC2929;" d="M299.3,140.8l-184.7-12.1v681.6l184.7-12.1c17.2-1.1,31.2-18.3,31.2-38.4V178.7
			C330.5,158.7,316.5,141.9,299.3,140.8z"/>
		<path style="fill:#FF9999;" d="M113,424.3v386l185.1-12.1c17.2-1.1,30.9-18.3,30.9-38.3V557.4l-141.4-299L113,424.3z"/>
		<polygon style="fill:#FFBFBF;" points="113,424.3 188.3,258.4 263.1,415.8 231.8,468.9 195.1,399.9 163,465 141.5,393.2
			113,464.2 		"/>
		<path style="fill:#FFE6E6;" d="M308.7,223.5c0-33.6-23.4-62.3-52.5-64.1c-29.5-1.8-53.6,24.6-53.6,58.9s24.2,63.1,53.6,64.2
			C285.3,283.5,308.7,257.1,308.7,223.5z"/>
		<path style="fill:#FF9999;" d="M347,508.3v250.5c0,20,15.2,35.2,32,34.1l73-4.7V507.5L347,508.3z"/>
		<path style="fill:#FF9696;" d="M452,150.8l-73-4.7c-16.8-1.1-32,13.8-32,33.8v210.2l105,1.6V150.8z"/>
		<path style="fill:#FF6363;" d="M454.2,300.8c-12.3,10.3-20.3,27.6-20.3,47.4c0,19.2,7.5,36.4,19.2,47.4L454.2,300.8z"/>
		<path style="fill:#D92C2C;" d="M347,390.2v118.1l105-0.8V374C416,376.2,380,383.3,347,390.2z"/>
	</g>
	<g>
		<linearGradient id="SVGID_1_" gradientUnits="userSpaceOnUse" x1="0.1495" y1="620.5347" x2="481.8505" y2="620.5347">
			<stop  offset="0" style="stop-color:#FFFFFF"/>
			<stop  offset="1" style="stop-color:#000000"/>
		</linearGradient>
		<linearGradient id="SVGID_2_" gradientUnits="userSpaceOnUse" x1="-0.1434" y1="620.5347" x2="482.1434" y2="620.5347">
			<stop  offset="0" style="stop-color:#FFFFFF;stop-opacity:0"/>
			<stop  offset="4.178309e-02" style="stop-color:#FFFFFF;stop-opacity:8.356619e-02"/>
			<stop  offset="0.5" style="stop-color:#FFFFFF"/>
			<stop  offset="1" style="stop-color:#FFFFFF;stop-opacity:0"/>
		</linearGradient>

			<line style="fill:url(#SVGID_1_);stroke:url(#SVGID_2_);stroke-width:8;stroke-miterlimit:10;" x1="0.1" y1="638.2" x2="481.9" y2="602.9"/>
		<linearGradient id="SVGID_3_" gradientUnits="userSpaceOnUse" x1="0.1495" y1="496.7081" x2="481.8505" y2="496.7081">
			<stop  offset="0" style="stop-color:#FFFFFF"/>
			<stop  offset="1" style="stop-color:#000000"/>
		</linearGradient>
		<linearGradient id="SVGID_4_" gradientUnits="userSpaceOnUse" x1="0.1481" y1="496.7081" x2="481.8519" y2="496.7081">
			<stop  offset="0" style="stop-color:#FFFFFF;stop-opacity:0"/>
			<stop  offset="4.178309e-02" style="stop-color:#FFFFFF;stop-opacity:8.356619e-02"/>
			<stop  offset="0.5" style="stop-color:#FFFFFF"/>
			<stop  offset="1" style="stop-color:#FFFFFF;stop-opacity:0"/>
		</linearGradient>

			<line style="fill:url(#SVGID_3_);stroke:url(#SVGID_4_);stroke-width:8;stroke-miterlimit:10;" x1="0.1" y1="496.6" x2="481.9" y2="496.8"/>
		<linearGradient id="SVGID_5_" gradientUnits="userSpaceOnUse" x1="0.1495" y1="374.0387" x2="481.8505" y2="374.0387">
			<stop  offset="0" style="stop-color:#FFFFFF"/>
			<stop  offset="1" style="stop-color:#000000"/>
		</linearGradient>
		<linearGradient id="SVGID_6_" gradientUnits="userSpaceOnUse" x1="-0.1434" y1="374.0387" x2="482.1434" y2="374.0387">
			<stop  offset="0" style="stop-color:#FFFFFF;stop-opacity:0"/>
			<stop  offset="4.178309e-02" style="stop-color:#FFFFFF;stop-opacity:8.356619e-02"/>
			<stop  offset="0.5" style="stop-color:#FFFFFF"/>
			<stop  offset="1" style="stop-color:#FFFFFF;stop-opacity:0"/>
		</linearGradient>

			<line style="fill:url(#SVGID_5_);stroke:url(#SVGID_6_);stroke-width:8;stroke-miterlimit:10;" x1="0.1" y1="356.4" x2="481.9" y2="391.7"/>
	</g>
</g>
</svg>
