<?xml version="1.0" encoding="utf-8"?>
<!-- Generator: Adobe Illustrator 14.0.0, SVG Export Plug-In . SVG Version: 6.00 Build 43363)  -->
<!DOCTYPE svg PUBLIC "-//W3C//DTD SVG 1.1//EN" "http://www.w3.org/Graphics/SVG/1.1/DTD/svg11.dtd">
<svg version="1.1" id="Layer_1" xmlns="http://www.w3.org/2000/svg" xmlns:xlink="http://www.w3.org/1999/xlink" x="0px" y="0px"
	 width="32.58px" height="31.77px" viewBox="0 0 32.58 31.77" enable-background="new 0 0 32.58 31.77" xml:space="preserve">
<path fill-rule="evenodd" clip-rule="evenodd" fill="#FFF" d="M16.29,0C7.295,0,0.001,7.293,0.001,16.291
	c0,7.196,4.667,13.301,11.141,15.456c0.814,0.15,1.112-0.354,1.112-0.785c0-0.387-0.014-1.41-0.022-2.77
	c-4.531,0.984-5.487-2.184-5.487-2.184c-0.741-1.883-1.809-2.383-1.809-2.383c-1.479-1.012,0.112-0.99,0.112-0.99
	c1.635,0.115,2.495,1.678,2.495,1.678c1.453,2.49,3.813,1.771,4.741,1.354c0.148-1.053,0.569-1.77,1.034-2.178
	c-3.617-0.41-7.42-1.809-7.42-8.05c0-1.778,0.635-3.232,1.677-4.371c-0.167-0.412-0.727-2.068,0.16-4.311
	c0,0,1.368-0.438,4.479,1.67c1.299-0.361,2.693-0.542,4.078-0.548c1.383,0.006,2.777,0.187,4.079,0.548
	c3.109-2.108,4.475-1.67,4.475-1.67c0.889,2.243,0.33,3.899,0.162,4.311c1.044,1.139,1.674,2.593,1.674,4.371
	c0,6.257-3.809,7.634-7.438,8.039c0.586,0.502,1.106,1.496,1.106,3.016c0,2.178-0.021,3.936-0.021,4.469
	c0,0.436,0.294,0.943,1.121,0.783c6.467-2.158,11.13-8.26,11.13-15.454C32.58,7.293,25.286,0,16.29,0z"/>
</svg>
